<?xml version="1.0" encoding="UTF-8"?><svg id="Layer_1" xmlns="http://www.w3.org/2000/svg" xmlns:xlink="http://www.w3.org/1999/xlink" viewBox="0 0 1183.96 81.79"><defs><style>.cls-1{fill:url(#radial-gradient);}</style><radialGradient id="radial-gradient" cx="616.62" cy="52.39" fx="616.62" fy="52.39" r="592.01" gradientUnits="userSpaceOnUse"><stop offset="0" stop-color="#fff"/><stop offset=".65" stop-color="#a2a2a2"/><stop offset="1" stop-color="#757575"/></radialGradient></defs><path class="cls-1" d="m101.39,24.36h-25.71c-9.71-.3-11.14,2.38-4.3,8.04,12.23,10.72,18.24,21.15,18.01,31.27-.23,10.12-6.23,16.16-18.01,18.12H0v-24.36h45.09c10.69.3,12.04-2.68,4.08-8.95-13.14-12.08-18.73-23.18-16.77-33.3C34.36,5.06,40.55,0,50.98,0h50.41v24.36Z"/><path class="cls-1" d="m170.09,0v24.36h-25.94v57.43h-26.62V24.36h-25.94V0h78.5Z"/><path class="cls-1" d="m163.86,24.36V0h68.65l27.36,81.79h-30.93l-5.15-14.73h-24.3l-5.15,14.73h-29.34l18.86-57.43h-19.99Zm48.43-6.23l-11.72,32.4h22.54l-10.82-32.4Z"/><path class="cls-1" d="m258.73,81.79V0h53.24c6.57.6,11.97,2.34,16.2,5.21,4.23,2.87,7.33,6.72,9.29,11.55,1.51,7.25,1.59,12.84.23,16.77-1.36,3.93-3.74,7.21-7.14,9.86-3.4,2.64-8.27,4.72-14.61,6.23l6.12,7.82h24.47v24.36h-32.29l-25.94-27.02v27.02h-29.57Zm29.57-61.4v15.07h20.62c1.09,0,2.28-.41,3.57-1.22,1.28-.81,1.96-2.86,2.04-6.15-.19-3.13-.95-5.2-2.29-6.2-1.34-1-2.46-1.5-3.37-1.5h-20.56Z"/><path class="cls-1" d="m453.92,47.12l-8.61,34.66h-26.62l-18.81-57.43h-16.99V0h37.5l11.21,35.34L441.34,0h24.47l11.38,35.34,7.59-35.34h26.34l-20.22,81.79h-26.62l-10.37-34.66Z"/><path class="cls-1" d="m493.23,24.36V0h68.65l27.36,81.79h-30.93l-5.15-14.73h-24.3l-5.15,14.73h-29.34l18.86-57.43h-19.99Zm48.43-6.23l-11.72,32.4h22.54l-10.82-32.4Z"/><path class="cls-1" d="m588.1,81.79V0h53.24c6.57.6,11.97,2.34,16.2,5.21,4.23,2.87,7.33,6.72,9.29,11.55,1.51,7.25,1.59,12.84.23,16.77-1.36,3.93-3.74,7.21-7.14,9.86-3.4,2.64-8.27,4.72-14.61,6.23l6.12,7.82h24.47v24.36h-32.29l-25.94-27.02v27.02h-29.57Zm29.57-61.4v15.07h20.62c1.09,0,2.28-.41,3.57-1.22,1.28-.81,1.96-2.86,2.04-6.15-.19-3.13-.95-5.2-2.29-6.2-1.34-1-2.46-1.5-3.37-1.5h-20.56Z"/><path class="cls-1" d="m746.01,24.36h-25.71c-9.71-.3-11.14,2.38-4.3,8.04,12.23,10.72,18.24,21.15,18.01,31.27-.23,10.12-6.23,16.16-18.01,18.12h-71.37v-24.36h45.09c10.69.3,12.04-2.68,4.08-8.95-13.14-12.08-18.73-23.18-16.77-33.3,1.96-10.12,8.16-15.18,18.58-15.18h50.41v24.36Z"/><path class="cls-1" d="m860.15,0v24.36h-25.94v57.43h-26.62V24.36h-25.94V0h78.5Z"/><path class="cls-1" d="m854.59,81.79V0h53.24c6.57.6,11.97,2.34,16.2,5.21,4.23,2.87,7.33,6.72,9.29,11.55,1.51,7.25,1.59,12.84.23,16.77-1.36,3.93-3.74,7.21-7.14,9.86-3.4,2.64-8.27,4.72-14.61,6.23l6.12,7.82h24.47v24.36h-32.29l-25.94-27.02v27.02h-29.57Zm29.57-61.4v15.07h20.62c1.09,0,2.28-.41,3.57-1.22,1.28-.81,1.96-2.86,2.04-6.15-.19-3.13-.95-5.2-2.29-6.2-1.34-1-2.46-1.5-3.37-1.5h-20.56Z"/><path class="cls-1" d="m941.25,0h26.62v81.79h-26.62V0Z"/><path class="cls-1" d="m996.82,0l18.58,62.81,18.8-62.81h32.79l-29.17,81.79h-43.44L965.61,0h31.21Z"/><path class="cls-1" d="m1064.73,0h26.62v81.79h-26.62V0Z"/><path class="cls-1" d="m1087.95,24.36V0h68.65l27.36,81.79h-30.93l-5.15-14.73h-24.3l-5.15,14.73h-29.34l18.86-57.43h-19.99Zm48.43-6.23l-11.72,32.4h22.54l-10.82-32.4Z"/></svg>